<svg width="230" height="90" xmlns="http://www.w3.org/2000/svg">
 <!-- Created with Method Draw - http://github.com/duopixel/Method-Draw/ -->
 <g>
  <title>background</title>
  <rect fill="#fff" id="canvas_background" height="92" width="232" y="-1" x="-1"/>
  <g display="none" overflow="visible" y="0" x="0" height="100%" width="100%" id="canvasGrid">
   <rect fill="url(#gridpattern)" stroke-width="0" y="0" x="0" height="100%" width="100%"/>
  </g>
 </g>
 <g>
  <title>Layer 1</title>
  <text font-style="italic" font-weight="bold" xml:space="preserve" text-anchor="start" font-family="'Simonetta', serif" font-size="24" id="svg_1" y="85" x="20" stroke-width="0" stroke="#000" fill="#000000">Cindy Saavedra M.</text>
  <path stroke="#000" id="svg_2" d="m99.841361,53.368206c-1.998108,0.337572 -3.538697,-1.921309 -1.06118,-2.167036c2.180114,0.031001 -0.542181,-1.605553 1.425638,-2.15683c2.263516,-1.661368 4.508643,-3.393869 5.959272,-5.532275c-0.730898,-0.72886 -1.937166,-1.425229 -1.77955,-2.422562c1.422758,-0.364322 3.542256,-0.117394 3.626534,-1.806426c1.293843,-3.048529 1.638941,-6.271742 1.922558,-9.447089c-1.427858,-0.851277 -4.368167,-0.044836 -6.363624,-0.478439c-3.02718,-0.614627 1.128833,-1.791363 2.461912,-1.69441c1.197827,0.001352 2.971506,-0.553847 0.966639,-0.978169c1.691242,-0.058696 4.123741,-1.672091 1.34252,-2.253659c2.061941,-1.113352 0.47309,-3.536167 -0.38785,-4.929507c-1.297882,-1.682526 -3.432101,-2.901082 -5.844374,-3.550869c-0.390555,-1.715732 3.328976,-1.208624 4.837643,-1.297662c2.28443,0.065532 4.61385,-0.020532 6.604162,-0.955956c2.689159,-0.935745 4.975276,0.625968 7.435239,0.956096c2.488231,0.120516 5.076541,-0.336666 7.499325,0.193511c0.750698,0.401606 1.9987,1.035934 0.495673,1.340358c-2.870507,1.20169 -5.551217,2.976927 -6.270794,5.49868c-1.085576,1.402785 0.838845,2.620016 -0.920721,3.626022c-0.01831,1.183628 4.083254,1.349029 1.787192,1.931882c1.573564,0.641609 4.948325,0.236913 5.29269,1.661936c-1.428496,0.845143 -3.431698,0.511613 -5.143307,0.590513c-0.580412,0.148741 -2.038946,-0.36293 -1.816914,0.389287c-0.113728,3.370702 1.050316,6.684935 2.176048,9.919837c0.001436,1.58488 5.197777,0.686262 2.309457,2.485054c-2.133506,1.381381 0.99451,3.316525 2.07817,4.545261c1.474028,1.347893 4.090538,2.030155 3.872152,4.008687c1.501485,0.081295 3.287432,1.839468 1.211472,2.277545c-11.235249,0.177278 -22.478941,0.299317 -33.715986,0.246219l0.000005,0z" stroke-width="1.5" fill="#BBBBBB"/>
 </g>
</svg>